{"title":"Every.Day.2010.720p.BRRip.x264.Feel-Free","uid":6180427,"size":1962264155,"categoryP":"video","categoryS":"hd___movies","magnet":"?xt=urn:btih:684982a0e139942586aec5469c462bf6c9e515b5&amp;dn=Every.Day.2010.720p.BRRip.x264.Feel-Free&amp;tr=udp%3A%2F%2Ftracker.openbittorrent.com%3A80&amp;tr=udp%3A%2F%2Fopen.demonii.com%3A1337&amp;tr=udp%3A%2F%2Ftracker.coppersurfer.tk%3A6969&amp;tr=udp%3A%2F%2Fexodus.desync.com%3A6969","seeders":0,"leechers":1,"uploader":"hiest","files":-1,"time":1297932061,"description":"Genre:Comedy | Drama\nLanguage: English\nIMDB:http://www.imdb.com/title/tt1301990/\nSource:BluRay.x264-LEVERAGE\n\nFormat : MPEG-4\nFormat profile : Base Media\nCodec ID : isom\nFile size : 1.82 GiB\nDuration : 1h 33mn\nOverall bit rate : 2 799 Kbps\nMovie name : Every.Day.2010.720p.BRRip.x264.Feel-Free\n\nVideo\nFormat settings, CABAC : Yes\nFormat settings, ReFrames : 4 frames\nFormat settings, GOP : M=1, N=2\nCodec ID : avc1\nCodec ID/Info : Advanced Video Coding\nDuration : 1h 33mn\nBit rate mode : Variable\nBit rate : 2 431 Kbps\nWidth : 1 280 pixels\nHeight : 720 pixels\nDisplay aspect ratio : 16:9\nFrame rate mode : Constant\nFrame rate : 23.976 fps\nColor space : YUV\nChroma subsampling : 4:2:0\nBit depth : 8 bits\nScan type : Progressive\nBits/(Pixel*Frame) : 0.110\nStream size : 1.57 GiB (86%)\nWriting library : x264\n\nAudio\nID : 2\nFormat : AAC\nFormat/Info : Advanced Audio Codec\nFormat version : Version 4\nFormat profile : LC\nCodec ID : 40\nDuration : 1h 33mn\nBit rate mode : Variable\nBit rate : 384 Kbps\nChannel(s) : 6 channels\nChannel positions : Front: L C R, Side: L R, LFE\nSampling rate : 48.0 KHz\nStream size : 256 MiB (14%)\n\n\nPlot:\nA comedy about a New York City couple (Schreiber and Hunt) in romantic crisis.","torrent":{"xt":"urn:btih:684982a0e139942586aec5469c462bf6c9e515b5","amp;dn":"Every.Day.2010.720p.BRRip.x264.Feel-Free","amp;tr":["udp%3A%2F%2Ftracker.openbittorrent.com%3A80","udp%3A%2F%2Fopen.demonii.com%3A1337","udp%3A%2F%2Ftracker.coppersurfer.tk%3A6969","udp%3A%2F%2Fexodus.desync.com%3A6969"],"infoHash":"684982a0e139942586aec5469c462bf6c9e515b5","infoHashBuffer":{"type":"Buffer","data":[104,73,130,160,225,57,148,37,134,174,197,70,156,70,43,246,201,229,21,181]},"announce":[],"urlList":[]}}